<svg xmlns="http://www.w3.org/2000/svg" width="1200" height="300" viewBox="0 0 1200 300">
<defs>
  <radialGradient id="fade" cx="0.3" cy="0.5" r="0.8"><stop offset="0" stop-color="#0d1117" stop-opacity="0"/><stop offset="1" stop-color="#0d1117"/></radialGradient>
  <radialGradient id="glow" cx="0.2" cy="0.5" r="0.5"><stop offset="0" stop-color="#00ADD8" stop-opacity="0.16"/><stop offset="1" stop-color="#00ADD8" stop-opacity="0"/></radialGradient>
  <linearGradient id="scan" x1="0" x2="1"><stop offset="0" stop-color="#00ADD8" stop-opacity="0"/><stop offset="0.5" stop-color="#00ADD8" stop-opacity="0.10"/><stop offset="1" stop-color="#00ADD8" stop-opacity="0"/></linearGradient>
  <filter id="soft" x="-20%" y="-50%" width="140%" height="200%"><feGaussianBlur stdDeviation="10" result="b"/><feMerge><feMergeNode in="b"/><feMergeNode in="SourceGraphic"/></feMerge></filter>
  <clipPath id="type"><rect x="84" y="186" height="34" width="245" class="typing"/></clipPath>
  <style>
    .t{font-family:"SF Pro Display",-apple-system,"Segoe UI",Inter,sans-serif}
    .m{font-family:"JetBrains Mono",ui-monospace,SFMono-Regular,Menlo,monospace}
    .scan{animation:scan 6s linear infinite} @keyframes scan{from{transform:translateX(-300px)}to{transform:translateX(1300px)}}
    .typing{animation:type 2.4s steps(20) .4s backwards} @keyframes type{from{width:0}}
    .cur{animation:move 2.4s steps(20) .4s backwards, blink 1.1s steps(1) 2.8s infinite}
    @keyframes move{from{transform:translateX(-245px)}} @keyframes blink{50%{opacity:0}}
    .ecg{stroke-dasharray:1400;stroke-dashoffset:1400;animation:draw 3.2s linear infinite} @keyframes draw{to{stroke-dashoffset:0}}
    .ok{animation:pulse 1.6s ease-in-out infinite} @keyframes pulse{50%{opacity:.35}}
    .live{animation:pulse 1.2s ease-in-out infinite}
  </style>
</defs>
<rect width="1200" height="300" rx="14" fill="#0d1117"/>
<g stroke="#00ADD8" stroke-opacity="0.07"><line x1="0" y1="0" x2="0" y2="300"/><line x1="40" y1="0" x2="40" y2="300"/><line x1="80" y1="0" x2="80" y2="300"/><line x1="120" y1="0" x2="120" y2="300"/><line x1="160" y1="0" x2="160" y2="300"/><line x1="200" y1="0" x2="200" y2="300"/><line x1="240" y1="0" x2="240" y2="300"/><line x1="280" y1="0" x2="280" y2="300"/><line x1="320" y1="0" x2="320" y2="300"/><line x1="360" y1="0" x2="360" y2="300"/><line x1="400" y1="0" x2="400" y2="300"/><line x1="440" y1="0" x2="440" y2="300"/><line x1="480" y1="0" x2="480" y2="300"/><line x1="520" y1="0" x2="520" y2="300"/><line x1="560" y1="0" x2="560" y2="300"/><line x1="600" y1="0" x2="600" y2="300"/><line x1="640" y1="0" x2="640" y2="300"/><line x1="680" y1="0" x2="680" y2="300"/><line x1="720" y1="0" x2="720" y2="300"/><line x1="760" y1="0" x2="760" y2="300"/><line x1="800" y1="0" x2="800" y2="300"/><line x1="840" y1="0" x2="840" y2="300"/><line x1="880" y1="0" x2="880" y2="300"/><line x1="920" y1="0" x2="920" y2="300"/><line x1="960" y1="0" x2="960" y2="300"/><line x1="1000" y1="0" x2="1000" y2="300"/><line x1="1040" y1="0" x2="1040" y2="300"/><line x1="1080" y1="0" x2="1080" y2="300"/><line x1="1120" y1="0" x2="1120" y2="300"/><line x1="1160" y1="0" x2="1160" y2="300"/><line x1="1200" y1="0" x2="1200" y2="300"/><line x1="0" y1="0" x2="1200" y2="0"/><line x1="0" y1="40" x2="1200" y2="40"/><line x1="0" y1="80" x2="1200" y2="80"/><line x1="0" y1="120" x2="1200" y2="120"/><line x1="0" y1="160" x2="1200" y2="160"/><line x1="0" y1="200" x2="1200" y2="200"/><line x1="0" y1="240" x2="1200" y2="240"/><line x1="0" y1="280" x2="1200" y2="280"/></g>
<rect class="scan" x="0" y="0" width="220" height="300" fill="url(#scan)"/>
<rect width="1200" height="300" rx="14" fill="url(#fade)"/>
<rect width="1200" height="300" rx="14" fill="url(#glow)"/>

<text x="80" y="150" class="t" font-size="80" font-weight="700" fill="#00ADD8" opacity="0.35" filter="url(#soft)">van1dal</text>
<text x="80" y="150" class="t" font-size="80" font-weight="700" fill="#ffffff">van1dal</text>
<g clip-path="url(#type)"><text x="84" y="208" class="m" font-size="20" fill="#00ADD8">go backend <tspan fill="#6e7681">→</tspan> devops</text></g>
<rect x="329" y="191" width="11" height="22" fill="#00ADD8" class="cur"/>
<text x="84" y="250" class="m" font-size="13" fill="#6e7681">gin · postgres · docker · github actions · kubernetes</text>

<g transform="translate(730,58)">
  <rect width="420" height="186" rx="10" fill="#0b0f14" stroke="#21262d"/>
  <circle cx="20" cy="22" r="4" fill="#00ADD8" class="live"/>
  <text x="34" y="26" class="m" font-size="13" fill="#c9d1d9">watchdog</text>
  <text x="400" y="26" class="m" font-size="12" fill="#6e7681" text-anchor="end">GET /health</text>
  <line x1="0" x2="420" y1="40" y2="40" stroke="#21262d"/>
</g>
<path d="M760,200 L790,200 L798,184 L806,226 L816,150 L826,214 L834,200 L860,200 L860,200 L890,200 L898,184 L906,226 L916,150 L926,214 L934,200 L960,200 L960,200 L990,200 L998,184 L1006,226 L1016,150 L1026,214 L1034,200 L1060,200 L1060,200 L1090,200 L1098,184 L1106,226 L1116,150 L1126,214 L1134,200 L1160,200" transform="translate(-10,8)" fill="none" stroke="#00ADD8" stroke-width="2" stroke-linejoin="round" class="ecg" filter="url(#soft)"/>
<text x="750" y="232" class="m ok" font-size="13" fill="#00ADD8">● 200 OK</text>
<text x="1130" y="232" class="m" font-size="13" fill="#6e7681" text-anchor="end">12ms · uptime 99.9%</text>
<rect x="0.5" y="0.5" width="1199" height="299" rx="14" fill="none" stroke="#30363d"/>
</svg>