<svg xmlns="http://www.w3.org/2000/svg" width="1200" height="120" viewBox="0 0 1200 120" role="img" aria-label="03 Projects">
<title>03 Projects</title>
<rect width="1200" height="120" fill="#f8f6f1" rx="18"/>
<g fill="#ece8e1"><path transform="translate(934.0 112.0) scale(0.11800 -0.11800)" d="M620 419H749L819 511Q819 511 832.0 501.0Q845 491 864.5 475.0Q884 459 906.0 441.0Q928 423 946 407Q942 391 917 391H620ZM620 200H753L829 300Q829 300 843.0 289.0Q857 278 878.5 261.0Q900 244 924.0 224.5Q948 205 967 188Q963 172 937 172H620ZM559 634H709V-57Q709 -63 677.0 -78.0Q645 -93 587 -93H559ZM506 855 698 788Q694 778 684.0 773.0Q674 768 656 769Q592 633 507.0 532.5Q422 432 319 364L309 371Q346 430 383.5 509.0Q421 588 453.0 677.0Q485 766 506 855ZM484 634H771L847 733Q847 733 861.0 722.0Q875 711 896.0 694.0Q917 677 940.5 658.0Q964 639 983 622Q979 606 953 606H484ZM149 524 191 579 325 530Q323 523 316.0 518.0Q309 513 294 510V-55Q293 -60 275.5 -69.5Q258 -79 231.5 -87.0Q205 -95 176 -95H149ZM235 856 425 794Q421 784 411.0 778.5Q401 773 383 774Q339 669 284.0 583.0Q229 497 164.5 429.0Q100 361 24 308L14 316Q57 381 99.0 468.5Q141 556 177.0 656.0Q213 756 235 856Z"/><path transform="translate(1052.0 112.0) scale(0.11800 -0.11800)" d="M229 776V834L380 776H698V748H374V444Q374 438 355.5 427.0Q337 416 308.5 407.5Q280 399 250 399H229ZM624 776H614L678 846L809 747Q805 741 795.0 734.5Q785 728 769 725V448Q769 444 749.0 434.5Q729 425 701.5 417.5Q674 410 649 410H624ZM307 523H701V495H307ZM76 342V397L218 342H398V314H213V-40Q213 -46 196.0 -56.5Q179 -67 152.0 -75.5Q125 -84 96 -84H76ZM323 342H313L375 410L501 313Q497 307 487.5 301.0Q478 295 462 292V-28Q462 -32 443.0 -41.5Q424 -51 397.5 -58.5Q371 -66 347 -66H323ZM124 51H384V23H124ZM533 342V397L675 342H870V314H670V-40Q670 -46 653.0 -56.5Q636 -67 609.0 -75.5Q582 -84 553 -84H533ZM788 342H778L841 411L970 313Q966 307 956.0 301.0Q946 295 930 291V-38Q930 -42 910.0 -49.5Q890 -57 863.0 -63.5Q836 -70 812 -70H788ZM576 51H851V23H576Z"/></g>
<text x="24" y="44" font-family="ui-monospace, 'JetBrains Mono', SFMono-Regular, Menlo, Consolas, monospace" font-size="15" fill="#e2557f" letter-spacing="2">03</text>
<line x1="56" y1="39" x2="120" y2="39" stroke="#c9c5bd"/>
<path d="M18.0 102.6 L30.9 100.8 L43.7 100.9 L56.6 99.7 L69.4 99.3 L82.3 99.7 L95.1 98.4 L108.0 98.3 L120.8 99.1 L133.7 97.9 L146.5 100.1 L159.4 99.6 L172.2 99.4 L185.1 99.0 L197.9 99.3 L210.8 101.3 L223.7 100.6 L236.5 102.9 L249.4 104.4 L249.4 104.2 L236.5 104.2 L223.7 106.5 L210.8 106.4 L197.9 107.0 L185.1 108.5 L172.2 109.0 L159.4 108.8 L146.5 108.1 L133.7 108.1 L120.8 108.7 L108.0 110.0 L95.1 109.5 L82.3 109.9 L69.4 107.4 L56.6 107.5 L43.7 108.9 L30.9 107.2 L18.0 106.6Z" fill="#f39bb5"/>
<g fill="#0a0a0b"><path transform="translate(24.0 96.0) scale(0.04600 -0.04600)" d="M45 0V33L198 47H239L395 33V0ZM139 0Q141 85 141.0 171.5Q141 258 141 346V394Q141 481 141.0 567.5Q141 654 139 741H286Q285 656 284.5 568.5Q284 481 284 394V324Q284 253 284.5 170.0Q285 87 286 0ZM213 299V335H326Q390 335 430.5 359.0Q471 383 490.5 425.0Q510 467 510 523Q510 612 467.5 658.0Q425 704 339 704H213V741H341Q501 741 572.5 683.0Q644 625 644 522Q644 460 613.0 409.5Q582 359 512.5 329.0Q443 299 329 299ZM45 708V741H213V694H198Z"/><path transform="translate(55.0 96.0) scale(0.04600 -0.04600)" d="M35 0V30L143 41H230L340 30V0ZM106 0Q108 25 108.5 67.0Q109 109 109.5 154.5Q110 200 110 235V310Q110 361 109.0 394.0Q108 427 106 464L28 471V495L224 550L237 542L245 399V398V235Q245 200 245.5 154.5Q246 109 246.5 67.0Q247 25 248 0ZM244 320 211 381H238Q253 436 279.5 474.0Q306 512 339.5 532.0Q373 552 406 552Q439 552 464.5 537.0Q490 522 497 485Q496 453 480.0 432.5Q464 412 430 412Q405 412 387.0 426.0Q369 440 350 464L327 491L363 485Q321 463 292.5 424.5Q264 386 244 320Z"/><path transform="translate(78.0 96.0) scale(0.04600 -0.04600)" d="M311 -16Q232 -16 170.5 18.5Q109 53 74.5 117.0Q40 181 40 270Q40 359 77.0 422.0Q114 485 176.0 518.5Q238 552 311 552Q385 552 447.0 519.0Q509 486 546.0 423.0Q583 360 583 270Q583 181 548.0 116.5Q513 52 451.5 18.0Q390 -16 311 -16ZM311 17Q372 17 405.5 80.0Q439 143 439 268Q439 394 405.5 456.0Q372 518 311 518Q251 518 217.0 456.0Q183 394 183 268Q183 143 217.0 80.0Q251 17 311 17Z"/><path transform="translate(106.6 96.0) scale(0.04600 -0.04600)" d="M13 -271Q-35 -271 -61.5 -253.5Q-88 -236 -95 -207Q-83 -146 -24 -146Q-1 -146 16.5 -158.0Q34 -170 49 -197L79 -245V-251H57V-242Q69 -232 78.5 -221.5Q88 -211 94 -192Q105 -164 107.5 -119.0Q110 -74 109.5 -16.5Q109 41 109 106V304Q109 354 108.5 392.0Q108 430 106 466L27 473V497L229 550L246 540L243 388V80Q243 1 237.0 -51.5Q231 -104 215.5 -139.5Q200 -175 171 -205Q134 -242 93.0 -256.5Q52 -271 13 -271ZM171 655Q139 655 116.5 675.5Q94 696 94 729Q94 760 116.5 780.5Q139 801 171 801Q202 801 224.5 780.5Q247 760 247 729Q247 696 224.5 675.5Q202 655 171 655Z"/><path transform="translate(122.0 96.0) scale(0.04600 -0.04600)" d="M316 -16Q236 -16 173.5 16.5Q111 49 75.5 113.0Q40 177 40 269Q40 359 78.0 422.5Q116 486 177.5 519.0Q239 552 309 552Q383 552 433.5 522.5Q484 493 509.5 443.0Q535 393 535 331Q535 296 529 270H98V305H353Q385 305 396.5 322.5Q408 340 408 380Q408 446 380.0 482.0Q352 518 304 518Q271 518 243.0 493.0Q215 468 198.5 416.0Q182 364 182 283Q182 201 205.0 148.5Q228 96 268.5 72.0Q309 48 361 48Q414 48 450.5 68.0Q487 88 514 123L532 110Q501 50 446.0 17.0Q391 -16 316 -16Z"/><path transform="translate(148.3 96.0) scale(0.04600 -0.04600)" d="M308 -16Q233 -16 172.0 16.0Q111 48 75.5 109.5Q40 171 40 260Q40 355 79.5 420.0Q119 485 185.0 518.5Q251 552 329 552Q380 552 422.5 532.5Q465 513 492.5 479.5Q520 446 528 402Q514 356 469 356Q442 356 422.0 374.0Q402 392 400 437L382 530L450 486Q421 503 396.0 510.5Q371 518 345 518Q298 518 261.0 489.5Q224 461 203.0 407.5Q182 354 182 278Q182 168 232.0 108.0Q282 48 365 48Q409 48 445.5 67.0Q482 86 510 121L528 108Q492 45 440.0 14.5Q388 -16 308 -16Z"/><path transform="translate(174.3 96.0) scale(0.04600 -0.04600)" d="M169 496V536H366V496ZM245 -16Q174 -16 137.0 19.5Q100 55 100 132Q100 160 100.5 182.5Q101 205 101 235V496H14V528L124 538L105 525L151 696H238L236 519V509V124Q236 82 253.5 62.5Q271 43 302 43Q322 43 338.0 50.5Q354 58 374 73L389 56Q368 21 332.5 2.5Q297 -16 245 -16Z"/><path transform="translate(192.4 96.0) scale(0.04600 -0.04600)" d="M232 -16Q178 -16 133.0 -4.5Q88 7 45 30L50 160H107L138 21L90 26V62Q122 41 152.0 30.5Q182 20 223 20Q283 20 314.5 43.0Q346 66 346 107Q346 141 325.5 164.0Q305 187 245 205L189 224Q124 244 86.5 282.5Q49 321 49 382Q49 456 105.0 504.0Q161 552 264 552Q313 552 352.0 540.5Q391 529 433 507L427 388H376L338 521L380 508V477Q350 498 325.0 507.0Q300 516 267 516Q217 516 188.5 493.0Q160 470 160 432Q160 402 181.5 379.5Q203 357 260 339L316 321Q394 296 428.5 256.5Q463 217 463 158Q463 105 435.5 66.0Q408 27 357.0 5.5Q306 -16 232 -16Z"/></g>
<g fill="#e2557f"><path transform="translate(237.4 94.0) scale(0.03000 -0.03000)" d="M614 423H764L826 503Q826 503 837.5 494.0Q849 485 866.0 470.5Q883 456 902.5 440.0Q922 424 938 410Q934 394 910 394H614ZM614 205H771L837 291Q837 291 849.5 281.5Q862 272 880.5 257.0Q899 242 920.0 225.0Q941 208 958 193Q954 177 929 177H614ZM564 635H686V-57Q686 -62 659.5 -75.0Q633 -88 586 -88H564ZM511 849 672 792Q668 783 658.5 778.0Q649 773 631 774Q571 642 491.0 540.0Q411 438 316 369L305 378Q343 435 382.0 511.0Q421 587 455.0 674.0Q489 761 511 849ZM478 635H791L858 721Q858 721 870.0 711.5Q882 702 900.5 687.0Q919 672 939.5 655.0Q960 638 977 623Q973 607 949 607H478ZM161 532 195 577 309 535Q307 528 300.0 523.0Q293 518 279 516V-56Q278 -60 263.5 -68.0Q249 -76 227.5 -82.5Q206 -89 183 -89H161ZM251 850 411 797Q407 788 397.5 782.5Q388 777 370 778Q329 677 276.5 591.0Q224 505 163.0 435.5Q102 366 32 313L20 322Q65 385 108.5 470.0Q152 555 189.5 653.0Q227 751 251 850Z"/><path transform="translate(271.4 94.0) scale(0.03000 -0.03000)" d="M238 777V826L361 777H703V749H356V440Q356 435 341.0 426.0Q326 417 303.0 410.0Q280 403 255 403H238ZM644 777H634L689 837L803 751Q799 745 788.0 738.5Q777 732 762 729V444Q762 440 745.5 432.0Q729 424 706.5 418.0Q684 412 664 412H644ZM300 521H706V492H300ZM82 341V388L199 341H402V313H194V-44Q194 -48 180.5 -57.0Q167 -66 145.0 -73.0Q123 -80 99 -80H82ZM339 341H329L383 399L493 315Q489 309 478.5 303.0Q468 297 453 294V-29Q453 -33 437.0 -41.0Q421 -49 399.5 -55.5Q378 -62 358 -62H339ZM123 49H391V21H123ZM542 341V388L660 341H876V313H655V-45Q655 -50 641.0 -58.5Q627 -67 605.0 -74.0Q583 -81 559 -81H542ZM807 341H797L851 400L964 315Q960 309 949.0 303.0Q938 297 923 293V-39Q923 -42 906.5 -49.0Q890 -56 868.0 -61.5Q846 -67 826 -67H807ZM578 49H859V21H578Z"/></g>
<g transform="translate(327.4 82.0)"><path d="M0 0C-5 -3 -7 -9 -5 -14C-4 -17 -2 -18 -1 -18L0 -15.5L1 -18C2 -18 4 -17 5 -14C7 -9 5 -3 0 0Z" transform="rotate(15.0) scale(0.611 0.611)" fill="#f39bb5" stroke="#e2557f" stroke-width="0.98" stroke-opacity="0.5"/><path d="M0 0C-5 -3 -7 -9 -5 -14C-4 -17 -2 -18 -1 -18L0 -15.5L1 -18C2 -18 4 -17 5 -14C7 -9 5 -3 0 0Z" transform="rotate(87.0) scale(0.611 0.611)" fill="#f39bb5" stroke="#e2557f" stroke-width="0.98" stroke-opacity="0.5"/><path d="M0 0C-5 -3 -7 -9 -5 -14C-4 -17 -2 -18 -1 -18L0 -15.5L1 -18C2 -18 4 -17 5 -14C7 -9 5 -3 0 0Z" transform="rotate(159.0) scale(0.611 0.611)" fill="#f39bb5" stroke="#e2557f" stroke-width="0.98" stroke-opacity="0.5"/><path d="M0 0C-5 -3 -7 -9 -5 -14C-4 -17 -2 -18 -1 -18L0 -15.5L1 -18C2 -18 4 -17 5 -14C7 -9 5 -3 0 0Z" transform="rotate(231.0) scale(0.611 0.611)" fill="#f39bb5" stroke="#e2557f" stroke-width="0.98" stroke-opacity="0.5"/><path d="M0 0C-5 -3 -7 -9 -5 -14C-4 -17 -2 -18 -1 -18L0 -15.5L1 -18C2 -18 4 -17 5 -14C7 -9 5 -3 0 0Z" transform="rotate(303.0) scale(0.611 0.611)" fill="#f39bb5" stroke="#e2557f" stroke-width="0.98" stroke-opacity="0.5"/><circle r="2.2" fill="#e2557f"/><circle cx="2.6" cy="3.2" r="0.7" fill="#e2557f"/><circle cx="-2.3" cy="3.5" r="0.7" fill="#e2557f"/><circle cx="-4.0" cy="-1.1" r="0.7" fill="#e2557f"/><circle cx="-0.2" cy="-4.2" r="0.7" fill="#e2557f"/><circle cx="3.9" cy="-1.5" r="0.7" fill="#e2557f"/></g>
</svg>
